{"title":"Thor.The.Dark.World.2013.720p.WEBRip.x264-Fastbet99","uid":9550158,"size":1436489343,"categoryP":"video","categoryS":"hd___movies","magnet":"?xt=urn:btih:0e3f3ef8df633175c6de4b0f49f186c3e7082c2b&amp;dn=Thor.The.Dark.World.2013.720p.WEBRip.x264-Fastbet99&amp;tr=udp%3A%2F%2Ftracker.openbittorrent.com%3A80&amp;tr=udp%3A%2F%2Fopen.demonii.com%3A1337&amp;tr=udp%3A%2F%2Ftracker.coppersurfer.tk%3A6969&amp;tr=udp%3A%2F%2Fexodus.desync.com%3A6969","seeders":2,"leechers":0,"uploader":"Fastbet99","files":-1,"time":1391234777,"description":"Thor : The Dark World (2013)\n\nIMDB Info\t\t\t\t : http://www.imdb.com/title/tt1981115\n\nSource\t\t\t\t\t : WEBiOS (Thanks)\nComplete name                            : Thor.The.Dark.World.2013.720p.WEBRip.x264-Fastbet99.mp4\nFormat                                   : MPEG-4\nFormat profile                           : Base Media\nCodec ID                                 : isom\nFile size                                : 1.34 GiB\nDuration                                 : 1h 52mn\nOverall bit rate mode                    : Variable\nOverall bit rate                         : 1 709 Kbps\n\nVideo\nID                                       : 1\nFormat                                   : AVC\nFormat/Info                              : Advanced Video Codec\nFormat profile                           : &lt;a class=&quot;__cf_email__&quot; href=&quot;/cdn-cgi/l/email-protection&quot; data-cfemail=&quot;b7ffded0dff7fb839986&quot;&gt;[email&amp;#160;protected]&lt;/a&gt;&lt;script cf-hash='f9e31' type=&quot;text/javascript&quot;&gt;\n/* &lt;![CDATA[ */!function(){try{var t=&quot;currentScript&quot;in document?document.currentScript:function(){for(var t=document.getElementsByTagName(&quot;script&quot;),e=t.length;e--;)if(t[e].getAttribute(&quot;cf-hash&quot;))return t[e]}();if(t&amp;&amp;t.previousSibling){var e,r,n,i,c=t.previousSibling,a=c.getAttribute(&quot;data-cfemail&quot;);if(a){for(e=&quot;&quot;,r=parseInt(a.substr(0,2),16),n=2;a.length-n;n+=2)i=parseInt(a.substr(n,2),16)^r,e+=String.fromCharCode(i);e=document.createTextNode(e),c.parentNode.replaceChild(e,c)}}}catch(u){}}();/* ]]&gt; */&lt;/script&gt;\nFormat settings, CABAC                   : Yes\nFormat settings, ReFrames                : 4 frames\nCodec ID                                 : avc1\nCodec ID/Info                            : Advanced Video Coding\nDuration                                 : 1h 52mn\nBit rate                                 : 1 546 Kbps\nMaximum bit rate                         : 10.7 Mbps\nWidth                                    : 1 280 pixels\nHeight                                   : 532 pixels\nDisplay aspect ratio                     : 2.40:1\nFrame rate mode                          : Constant\nFrame rate                               : 23.976 fps\nColor space                              : YUV\nChroma subsampling                       : 4:2:0\nBit depth                                : 8 bits\nScan type                                : Progressive\nBits/(Pixel*Frame)                       : 0.095\nStream size                              : 1.21 GiB (90%)\nWriting library                          : x264 core 138 r2358 9e941d1\n\nAudio\nID                                       : 2\nFormat                                   : AAC\nFormat/Info                              : Advanced Audio Codec\nFormat profile                           : LC\nCodec ID                                 : 40\nDuration                                 : 1h 52mn\nBit rate mode                            : Variable\nBit rate                                 : 158 Kbps\nMaximum bit rate                         : 235 Kbps\nChannel count                            : 2 channels\nChannel positions                        : Front: L R\nSampling rate                            : 48.0 KHz\nCompression mode                         : Lossy\nStream size                              : 126 MiB (9%)\nLanguage                                 : English\n\nText #1\nID                                       : 3\nFormat                                   : Timed Text\nCodec ID                                 : tx3g\nDuration                                 : 1h 15mn\nBit rate mode                            : Variable\nBit rate                                 : 2 bps\nStream size                              : 1.08 KiB (0%)\nLanguage                                 : English\n\nText #2\nID                                       : 4\nFormat                                   : Timed Text\nCodec ID                                 : tx3g\nDuration                                 : 1h 51mn\nBit rate mode                            : Variable\nBit rate                                 : 54 bps\nStream size                              : 44.1 KiB (0%)\nLanguage                                 : English\n\nText #3\nID                                       : 5\nFormat                                   : Timed Text\nCodec ID                                 : tx3g\nDuration                                 : 1h 45mn\nBit rate mode                            : Variable\nBit rate                                 : 40 bps\nStream size                              : 30.9 KiB (0%)\nLanguage                                 : Chinese\n\nText #4\nID                                       : 6\nFormat                                   : Timed Text\nCodec ID                                 : tx3g\nDuration                                 : 1h 45mn\nBit rate mode                            : Variable\nBit rate                                 : 49 bps\nStream size                              : 37.9 KiB (0%)\nLanguage                                 : Danish\n\nText #5\nID                                       : 7\nFormat                                   : Timed Text\nCodec ID                                 : tx3g\nDuration                                 : 1h 51mn\nBit rate mode                            : Variable\nBit rate                                 : 43 bps\nStream size                              : 35.2 KiB (0%)\nLanguage                                 : Dutch\n\nText #6\nID                                       : 8\nFormat                                   : Timed Text\nCodec ID                                 : tx3g\nDuration                                 : 1h 45mn\nBit rate mode                            : Variable\nBit rate                                 : 51 bps\nStream size                              : 39.2 KiB (0%)\nLanguage                                 : Finnish\n\nText #7\nID                                       : 9\nFormat                                   : Timed Text\nCodec ID                                 : tx3g\nDuration                                 : 1h 51mn\nBit rate mode                            : Variable\nBit rate                                 : 70 bps\nStream size                              : 57.1 KiB (0%)\nLanguage                                 : Greek\n\nText #8\nID                                       : 10\nFormat                                   : Timed Text\nCodec ID                                 : tx3g\nDuration                                 : 1h 45mn\nBit rate mode                            : Variable\nBit rate                                 : 46 bps\nStream size                              : 36.0 KiB (0%)\nLanguage                                 : Indonesian\n\nText #9\nID                                       : 11\nFormat                                   : Timed Text\nCodec ID                                 : tx3g\nDuration                                 : 1h 45mn\nBit rate mode                            : Variable\nBit rate                                 : 51 bps\nStream size                              : 39.2 KiB (0%)\nLanguage                                 : Malay\n\nText #10\nID                                       : 12\nFormat                                   : Timed Text\nCodec ID                                 : tx3g\nDuration                                 : 1h 45mn\nBit rate mode                            : Variable\nBit rate                                 : 48 bps\nStream size                              : 36.9 KiB (0%)\nLanguage                                 : Norwegian\n\nText #11\nID                                       : 13\nFormat                                   : Timed Text\nCodec ID                                 : tx3g\nDuration                                 : 1h 45mn\nBit rate mode                            : Variable\nBit rate                                 : 48 bps\nStream size                              : 37.4 KiB (0%)\nLanguage                                 : Polish\n\nText #12\nID                                       : 14\nFormat                                   : Timed Text\nCodec ID                                 : tx3g\nDuration                                 : 1h 45mn\nBit rate mode                            : Variable\nBit rate                                 : 51 bps\nStream size                              : 39.3 KiB (0%)\nLanguage                                 : Portuguese\n\nText #13\nID                                       : 15\nFormat                                   : Timed Text\nCodec ID                                 : tx3g\nDuration                                 : 1h 45mn\nBit rate mode                            : Variable\nBit rate                                 : 45 bps\nStream size                              : 35.2 KiB (0%)\nLanguage                                 : Swedish\n\nText #14\nID                                       : 16\nFormat                                   : Timed Text\nCodec ID                                 : tx3g\nDuration                                 : 1h 45mn\nBit rate mode                            : Variable\nBit rate                                 : 43 bps\nStream size                              : 33.1 KiB (0%)\nLanguage                                 : Chinese\nEncoder\t\t\t\t\t : Fastbet99\n\nScreenshots\n &lt;a href=&quot;\nhttp://lookpic.com/O/i2/310/CyDupzOE.jpeg&quot; rel=&quot;nofollow&quot; target=&quot;_NEW&quot;&gt;\nhttp://lookpic.com/O/i2/310/CyDupzOE.jpeg&lt;/a&gt;\n\nStairway To heaven - Help People With Keep Seed As Long You Can","torrent":{"xt":"urn:btih:0e3f3ef8df633175c6de4b0f49f186c3e7082c2b","amp;dn":"Thor.The.Dark.World.2013.720p.WEBRip.x264-Fastbet99","amp;tr":["udp%3A%2F%2Ftracker.openbittorrent.com%3A80","udp%3A%2F%2Fopen.demonii.com%3A1337","udp%3A%2F%2Ftracker.coppersurfer.tk%3A6969","udp%3A%2F%2Fexodus.desync.com%3A6969"],"infoHash":"0e3f3ef8df633175c6de4b0f49f186c3e7082c2b","infoHashBuffer":{"type":"Buffer","data":[14,63,62,248,223,99,49,117,198,222,75,15,73,241,134,195,231,8,44,43]},"announce":[],"urlList":[]}}